<svg width="24" height="24" viewBox="0 0 24 24" fill="none" xmlns="http://www.w3.org/2000/svg">
<path d="M20.462 8.66084C17.3325 5.24628 14.218 6.63073 12.3848 7.62226C12.2231 7.70971 12.027 7.70127 11.8694 7.6066C8.39706 5.52054 5.59871 6.89561 4.37837 8.79691C0.588088 14.7022 5.72526 21.0553 6.57842 22.0956C7.43157 23.1358 9.21693 23.3473 10.6115 22.5865C11.7272 21.9779 12.9859 21.97 13.9358 22.5865C17.5745 24.9481 20.2266 19.1371 20.9602 17.4225C20.9826 17.37 20.9528 17.3117 20.8995 17.291C16.0053 15.3934 18.0064 9.50035 20.409 8.83591C20.4846 8.81498 20.515 8.71872 20.462 8.66084Z" stroke="currentColor" stroke-width="0.85"/>
<path d="M15.977 0.933089C13.036 1.54564 11.8747 4.22908 11.8355 5.83216C11.8292 6.09171 12.0587 6.28266 12.314 6.23564C14.4599 5.8405 16.6359 3.50461 16.493 1.3101C16.4762 1.05169 16.2305 0.880288 15.977 0.933089Z" stroke="currentColor" stroke-width="0.85"/>
</svg>
