<svg width="36" height="36" viewBox="0 0 36 36" fill="none" xmlns="http://www.w3.org/2000/svg">
<g clip-path="url(#clip71)">
<path d="M15.7632 8.16141C15.9512 8.16141 16.1285 8.07261 16.2409 7.9218C16.3536 7.771 16.3885 7.57623 16.335 7.39573C15.9076 5.93627 15.169 4.58687 14.1695 3.44097C13.3642 2.58417 12.1656 2.21734 11.0189 2.47674C10.8605 2.53729 10.7356 2.66248 10.675 2.82086C10.6421 2.90994 10.6177 3.00194 10.6023 3.09569C10.5839 3.2069 10.574 3.31928 10.5723 3.43195V3.44155C10.5795 4.39239 10.9627 5.30189 11.6384 5.97121C12.7843 6.9698 14.1328 7.70811 15.5914 8.1352C15.6473 8.1518 15.7049 8.16082 15.7632 8.16141ZM12.4838 5.12692C12.2472 4.88994 12.0614 4.60667 11.9377 4.29516V4.28933C11.9115 4.22325 11.8888 4.15687 11.8693 4.09311C11.8591 4.05847 11.8518 4.02586 11.8431 3.9918C11.834 3.95773 11.8262 3.93211 11.8204 3.90242C11.8142 3.87243 11.8131 3.86049 11.809 3.83924C11.7915 3.75015 11.7793 3.66019 11.7726 3.56965C12.3607 3.6142 12.913 3.86806 13.3299 4.28526C13.9226 4.95545 14.4004 5.71909 14.7436 6.54562C13.9162 6.20121 13.1514 5.72171 12.4809 5.12692H12.4838Z" fill="white"/>
<path d="M34.0628 8.57286H24.8592C25.2572 8.30094 25.631 7.99496 25.976 7.6587C28.1088 5.51945 28.1787 2.27594 26.8162 0.91344C25.4537 -0.449063 22.2113 -0.380355 20.0697 1.75481C19.194 2.70798 18.4825 3.79973 17.9643 4.98581C17.4461 3.79886 16.7339 2.70653 15.8573 1.75307C13.7181 -0.379773 10.4749 -0.449645 9.11208 0.912857C7.74899 2.27536 7.81945 5.51887 9.95258 7.6587C10.2979 7.99496 10.6717 8.30094 11.0694 8.57286H1.86577C1.5365 8.57286 1.26953 8.83983 1.26953 9.1691V15.1315C1.26953 15.4608 1.5365 15.7277 1.86577 15.7277H3.05825V33.0187C3.06029 34.6642 4.39397 35.9979 6.03946 35.9999H29.8891C31.5349 35.9979 32.8685 34.6642 32.8703 33.0187V15.7277H34.0628C34.392 15.7277 34.659 15.4608 34.659 15.1315V9.1691C34.659 8.83983 34.392 8.57286 34.0628 8.57286ZM20.9135 2.59735C22.6271 0.888985 25.1264 0.908781 25.9736 1.75598C26.8208 2.60318 26.8412 5.10139 25.1328 6.81558C24.3506 7.53875 23.4574 8.13179 22.4873 8.57286H18.9244C18.9244 8.56034 18.9244 8.54666 18.9244 8.53414C18.9244 8.39818 18.9142 8.26047 18.9011 8.12189C18.8962 8.07619 18.8909 8.03077 18.8857 7.98419C18.872 7.86977 18.8551 7.75565 18.8348 7.64211C18.8284 7.60222 18.8217 7.56204 18.8147 7.52274C18.7861 7.37426 18.755 7.22811 18.7192 7.08692C18.7145 7.06654 18.709 7.04878 18.7043 7.02723C18.6726 6.90379 18.64 6.78879 18.6065 6.66972C18.6019 6.65342 18.5975 6.63566 18.5928 6.61936C19.0813 5.13341 19.8715 3.76392 20.9135 2.59735ZM20.3492 14.5353H15.5793V9.76534H20.3492V14.5353ZM10.7963 6.81616C9.08762 5.10197 9.10771 2.60376 9.9552 1.75598C10.8024 0.908199 13.3006 0.888402 15.0136 2.59561C16.0984 3.8108 16.9115 5.24375 17.3986 6.7984C17.4659 7.00773 17.5177 7.20861 17.5666 7.40367C17.5803 7.45957 17.5916 7.51372 17.6036 7.56874C17.6359 7.71431 17.6618 7.85318 17.6813 7.98622C17.6877 8.03135 17.6961 8.07793 17.7014 8.12189C17.7203 8.27066 17.7305 8.4206 17.7319 8.57053H13.4412C12.4718 8.13034 11.5788 7.53817 10.7963 6.81616ZM2.46201 9.76534H14.3868V14.5353H2.46201V9.76534ZM4.25073 33.0187V15.7277H15.5793V34.8074H6.03946C5.05164 34.8074 4.25073 34.0065 4.25073 33.0187ZM16.7718 34.8074V15.7277H19.1568V34.8074H16.7718ZM31.6778 33.0187C31.6778 34.0065 30.8772 34.8074 29.8891 34.8074H20.3492V15.7277H31.6778V33.0187ZM33.4665 14.5353H21.5417V9.76534H33.4665V14.5353Z" fill="white"/>
<path d="M20.1622 8.16318C20.2196 8.16318 20.2766 8.15503 20.3316 8.13872C21.792 7.71192 23.142 6.97215 24.2876 5.97065C25.1359 5.15927 25.5016 3.96562 25.2536 2.81826C25.1936 2.66047 25.0687 2.53586 24.9109 2.4756C23.7635 2.22755 22.5699 2.59322 21.7585 3.44158C20.7573 4.58719 20.0175 5.93717 19.5904 7.3975C19.5371 7.578 19.5718 7.77306 19.6844 7.92358C19.7971 8.07438 19.9741 8.16318 20.1622 8.16318ZM22.6016 4.2847C23.0191 3.8678 23.572 3.61422 24.1601 3.5691C24.1155 4.15748 23.8616 4.71063 23.4447 5.12812C22.774 5.72494 22.008 6.20531 21.1788 6.54972C21.5235 5.72057 22.0045 4.95518 22.6016 4.2847Z" fill="white"/>
</g>
<defs>
<clipPath id="clip71">
<rect width="36" height="36" fill="white"/>
</clipPath>
</defs>
</svg>
