<svg width="36" height="40" viewBox="0 0 36 40" fill="none" xmlns="http://www.w3.org/2000/svg">
<path d="M5.68655 5.13577C12.4874 -1.66505 23.5137 -1.66505 30.3145 5.13577C37.1153 11.9366 37.1153 22.9629 30.3145 29.7637L27.9406 32.1115C26.1908 33.8289 23.9205 36.0367 21.1289 38.7359C19.3844 40.4226 16.6167 40.4223 14.8725 38.7354L7.8903 31.9437C7.01277 31.082 6.27823 30.3554 5.68655 29.7637C-1.11427 22.9629 -1.11427 11.9366 5.68655 5.13577ZM28.1932 7.25709C22.5639 1.62784 13.4371 1.62784 7.80787 7.25709C2.17862 12.8863 2.17862 22.0132 7.80787 27.6424L10.782 30.5773C12.4198 32.1802 14.4788 34.181 16.9581 36.579C17.5395 37.1413 18.4621 37.1414 19.0436 36.5791L25.8333 29.9762C26.7712 29.0556 27.5579 28.2777 28.1932 27.6424C33.8224 22.0132 33.8224 12.8863 28.1932 7.25709ZM18.0005 11.9971C21.3159 11.9971 24.0036 14.6848 24.0036 18.0002C24.0036 21.3156 21.3159 24.0033 18.0005 24.0033C14.6851 24.0033 11.9974 21.3156 11.9974 18.0002C11.9974 14.6848 14.6851 11.9971 18.0005 11.9971ZM18.0005 14.9971C16.342 14.9971 14.9974 16.3416 14.9974 18.0002C14.9974 19.6587 16.342 21.0033 18.0005 21.0033C19.6591 21.0033 21.0036 19.6587 21.0036 18.0002C21.0036 16.3416 19.6591 14.9971 18.0005 14.9971Z" fill="#303030"/>
</svg>
