<svg width="36" height="36" viewBox="0 0 36 36" fill="none" xmlns="http://www.w3.org/2000/svg">
<path d="M34.0014 17.4966L31.9202 16.4559L29.0351 10.6875H30.375C30.5242 10.6875 30.6673 10.6282 30.7727 10.5227C30.8782 10.4173 30.9375 10.2742 30.9375 10.125V6.75C30.9375 6.60082 30.8782 6.45774 30.7727 6.35225C30.6673 6.24676 30.5242 6.1875 30.375 6.1875H2.25C2.10082 6.1875 1.95774 6.24676 1.85225 6.35225C1.74676 6.45774 1.6875 6.60082 1.6875 6.75V24.75C1.68759 24.868 1.72479 24.983 1.79384 25.0787C1.86289 25.1744 1.96029 25.246 2.07225 25.2833L5.08444 26.2873C5.18928 27.2381 5.63662 28.1182 6.34291 28.7632C7.04921 29.4082 7.96615 29.7741 8.92249 29.7925C9.87883 29.8109 10.8092 29.4806 11.5397 28.8631C12.2703 28.2457 12.7512 27.3835 12.8925 26.4375H23.1075C23.242 27.374 23.7096 28.2306 24.4246 28.8502C25.1395 29.4698 26.0539 29.8109 27 29.8109C27.9461 29.8109 28.8605 29.4698 29.5754 28.8502C30.2904 28.2306 30.758 27.374 30.8925 26.4375H33.75C33.8992 26.4375 34.0423 26.3782 34.1477 26.2727C34.2532 26.1673 34.3125 26.0242 34.3125 25.875V18C34.3125 17.8955 34.2835 17.793 34.2285 17.7041C34.1736 17.6151 34.0949 17.5433 34.0014 17.4966ZM30.5899 16.3125H25.3125V10.6875H27.7774L30.5899 16.3125ZM21.9375 7.3125V21.9375H2.8125V7.3125H21.9375ZM2.8125 23.0625H6.24994C5.67857 23.6192 5.29028 24.3367 5.13675 25.1196L2.8125 24.3444V23.0625ZM9 28.6875C8.44374 28.6875 7.89997 28.5226 7.43746 28.2135C6.97495 27.9045 6.61446 27.4652 6.40159 26.9513C6.18872 26.4374 6.13302 25.8719 6.24154 25.3263C6.35006 24.7807 6.61793 24.2796 7.01126 23.8863C7.4046 23.4929 7.90574 23.2251 8.45131 23.1165C8.99688 23.008 9.56238 23.0637 10.0763 23.2766C10.5902 23.4895 11.0295 23.8499 11.3385 24.3125C11.6475 24.775 11.8125 25.3187 11.8125 25.875C11.8116 26.6206 11.515 27.3355 10.9878 27.8628C10.4605 28.39 9.74565 28.6866 9 28.6875ZM27 28.6875C26.4437 28.6875 25.9 28.5226 25.4375 28.2135C24.9749 27.9045 24.6145 27.4652 24.4016 26.9513C24.1887 26.4374 24.133 25.8719 24.2415 25.3263C24.3501 24.7807 24.6179 24.2796 25.0113 23.8863C25.4046 23.4929 25.9057 23.2251 26.4513 23.1165C26.9969 23.008 27.5624 23.0637 28.0763 23.2766C28.5902 23.4895 29.0295 23.8499 29.3385 24.3125C29.6476 24.775 29.8125 25.3187 29.8125 25.875C29.8116 26.6206 29.515 27.3355 28.9878 27.8628C28.4605 28.39 27.7456 28.6866 27 28.6875ZM33.1875 25.3125H30.8925C30.758 24.376 30.2904 23.5194 29.5754 22.8998C28.8605 22.2802 27.9461 21.9391 27 21.9391C26.0539 21.9391 25.1395 22.2802 24.4246 22.8998C23.7096 23.5194 23.242 24.376 23.1075 25.3125H12.8925C12.7697 24.4572 12.3681 23.6663 11.7501 23.0625H22.5C22.6492 23.0625 22.7923 23.0032 22.8977 22.8977C23.0032 22.7923 23.0625 22.6492 23.0625 22.5V7.3125H29.8125V9.5625H24.75C24.6008 9.5625 24.4577 9.62176 24.3523 9.72725C24.2468 9.83274 24.1875 9.97582 24.1875 10.125V16.875C24.1875 17.0242 24.2468 17.1673 24.3523 17.2727C24.4577 17.3782 24.6008 17.4375 24.75 17.4375H31.3673L33.1875 18.3476V25.3125Z" fill="#303030"/>
<path d="M5.0625 15.1875H7.3125V14.0625H5.0625V12.9375H7.3125V11.8125H4.5C4.35082 11.8125 4.20774 11.8718 4.10225 11.9773C3.99676 12.0827 3.9375 12.2258 3.9375 12.375V17.4375H5.0625V15.1875Z" fill="#303030"/>
<path d="M11.8125 14.625V12.375C11.8125 12.2258 11.7532 12.0827 11.6477 11.9773C11.5423 11.8718 11.3992 11.8125 11.25 11.8125H9C8.85082 11.8125 8.70774 11.8718 8.60225 11.9773C8.49676 12.0827 8.4375 12.2258 8.4375 12.375V17.4375H9.5625V15.9829L11.25 17.6704L12.0454 16.875L10.3579 15.1875H11.25C11.3992 15.1875 11.5423 15.1282 11.6477 15.0227C11.7532 14.9173 11.8125 14.7742 11.8125 14.625ZM10.6875 14.0625H9.5625V12.9375H10.6875V14.0625Z" fill="#303030"/>
<path d="M16.3125 12.9375V11.8125H13.5C13.3508 11.8125 13.2077 11.8718 13.1023 11.9773C12.9968 12.0827 12.9375 12.2258 12.9375 12.375V16.875C12.9375 17.0242 12.9968 17.1673 13.1023 17.2727C13.2077 17.3782 13.3508 17.4375 13.5 17.4375H16.3125V16.3125H14.0625V15.1875H16.3125V14.0625H14.0625V12.9375H16.3125Z" fill="#303030"/>
<path d="M17.4375 12.375V16.875C17.4375 17.0242 17.4968 17.1673 17.6023 17.2727C17.7077 17.3782 17.8508 17.4375 18 17.4375H20.8125V16.3125H18.5625V15.1875H20.8125V14.0625H18.5625V12.9375H20.8125V11.8125H18C17.8508 11.8125 17.7077 11.8718 17.6023 11.9773C17.4968 12.0827 17.4375 12.2258 17.4375 12.375Z" fill="#303030"/>
<path d="M9 27C9.62132 27 10.125 26.4963 10.125 25.875C10.125 25.2537 9.62132 24.75 9 24.75C8.37868 24.75 7.875 25.2537 7.875 25.875C7.875 26.4963 8.37868 27 9 27Z" fill="#303030"/>
<path d="M27 27C27.6213 27 28.125 26.4963 28.125 25.875C28.125 25.2537 27.6213 24.75 27 24.75C26.3787 24.75 25.875 25.2537 25.875 25.875C25.875 26.4963 26.3787 27 27 27Z" fill="#303030"/>
</svg>
