<svg xmlns="http://www.w3.org/2000/svg" viewBox="0 0 57 22" width="57" height="22"><path d="M27.73,0,22.06,17.07H17.75L13.93,5.51,10,17.07H5.7L0,0H4.16L8.08,12,12.17,0h3.72l4,12.1,4-12.1Z" fill="#141517"/><path d="M34.09,3.76a7,7,0,0,1,4.76,1.46,5.49,5.49,0,0,1,1.66,4.37v7.48H36.89V15.44c-.73,1.22-2.08,1.83-4.07,1.83a6.49,6.49,0,0,1-2.67-.51,4,4,0,0,1-1.71-1.42,3.6,3.6,0,0,1-.6-2.05,3.43,3.43,0,0,1,1.39-2.88,7.36,7.36,0,0,1,4.34-1h3.07a2.36,2.36,0,0,0-.77-1.91,3.4,3.4,0,0,0-2.3-.68,6.7,6.7,0,0,0-2.11.34A5.42,5.42,0,0,0,29.73,8L28.34,5.34a8.63,8.63,0,0,1,2.6-1.17A11.89,11.89,0,0,1,34.09,3.76Zm-.3,11a3.51,3.51,0,0,0,1.76-.44,2.54,2.54,0,0,0,1.09-1.34V11.59H34c-1.59,0-2.38.51-2.38,1.53a1.4,1.4,0,0,0,.57,1.17A2.74,2.74,0,0,0,33.79,14.71Z" fill="#141517"/><path d="M47.56,17.17,41.78,4h4l3.75,8.9" fill="#141517"/><path d="M49.52,12.85,53.28,4H57L51,17.88a6.75,6.75,0,0,1-2.28,3.19,5.58,5.58,0,0,1-3.25.93,7,7,0,0,1-2.06-.32,4.52,4.52,0,0,1-1.66-.88l1.42-2.7a3.32,3.32,0,0,0,1,.61,3.55,3.55,0,0,0,1.17.22,2,2,0,0,0,1.29-.39,3.19,3.19,0,0,0,.89-1.25l.05-.12" fill="#fe7865"/></svg>