<svg xmlns="http://www.w3.org/2000/svg">
<style>[viewBox] { display: none; } :target { display: block; }</style>

<svg id="arrow-left" viewBox="0 0 24 24">
<path fill-rule="evenodd" clip-rule="evenodd" d="M15.7071 19.7071C16.0976 19.3166 16.0976 18.6834 15.7071 18.2929L9.41421 12L15.7071 5.70711C16.0976 5.31658 16.0976 4.68342 15.7071 4.29289C15.3166 3.90237 14.6834 3.90237 14.2929 4.29289L7.29289 11.2929C6.90237 11.6834 6.90237 12.3166 7.29289 12.7071L14.2929 19.7071C14.6834 20.0976 15.3166 20.0976 15.7071 19.7071Z" fill="#303030"/></svg>

<svg id="arrow-right" viewBox="0 0 24 24">
<path fill-rule="evenodd" clip-rule="evenodd" d="M8.29289 4.29289C7.90237 4.68342 7.90237 5.31658 8.29289 5.70711L14.5858 12L8.29289 18.2929C7.90237 18.6834 7.90237 19.3166 8.29289 19.7071C8.68342 20.0976 9.31658 20.0976 9.70711 19.7071L16.7071 12.7071C17.0976 12.3166 17.0976 11.6834 16.7071 11.2929L9.70711 4.29289C9.31658 3.90237 8.68342 3.90237 8.29289 4.29289Z" fill="#303030"/></svg>

<svg id="arrow-right-w" viewBox="0 0 24 24">
<path fill-rule="evenodd" clip-rule="evenodd" d="M8.29289 4.29289C7.90237 4.68342 7.90237 5.31658 8.29289 5.70711L14.5858 12L8.29289 18.2929C7.90237 18.6834 7.90237 19.3166 8.29289 19.7071C8.68342 20.0976 9.31658 20.0976 9.70711 19.7071L16.7071 12.7071C17.0976 12.3166 17.0976 11.6834 16.7071 11.2929L9.70711 4.29289C9.31658 3.90237 8.68342 3.90237 8.29289 4.29289Z" fill="#FFFFFF"/></svg>

<svg id="close" viewBox="0 0 24 24"><path d="M20,4,4,20" fill="none" stroke="#303030" stroke-linecap="round" stroke-width="2"/><path d="M4,4,20,20" fill="none" stroke="#303030" stroke-linecap="round" stroke-width="2"/></svg>

<svg id="close-w" viewBox="0 0 24 24"><path d="M20,4,4,20" fill="none" stroke="#fff" stroke-linecap="round" stroke-width="2"/><path d="M4,4,20,20" fill="none" stroke="#fff" stroke-linecap="round" stroke-width="2"/></svg>

<svg id="search-purple" viewBox="0 0 24 24">
<path d="M10 2.5C14.1421 2.5 17.5 5.85786 17.5 10C17.5 11.7101 16.9276 13.2866 15.964 14.5483L20.7071 19.2929C21.0976 19.6834 21.0976 20.3166 20.7071 20.7071C20.3466 21.0676 19.7794 21.0953 19.3871 20.7903L19.2929 20.7071L14.5483 15.964C13.2866 16.9276 11.7101 17.5 10 17.5C5.85786 17.5 2.5 14.1421 2.5 10C2.5 5.85786 5.85786 2.5 10 2.5ZM10 4.5C6.96243 4.5 4.5 6.96243 4.5 10C4.5 13.0376 6.96243 15.5 10 15.5C13.0376 15.5 15.5 13.0376 15.5 10C15.5 6.96243 13.0376 4.5 10 4.5Z" fill="#5F3EC0"/></svg>

<svg id="tick" viewBox="0 0 15 12">
<path fill-rule="evenodd" clip-rule="evenodd" d="M12.6372 0.398958C12.8941 0.144315 13.2409 0.0010032 13.6026 5.24681e-06C13.9643 -0.000992703 14.3119 0.140403 14.5702 0.393625C14.8285 0.646846 14.9767 0.991547 14.9829 1.3532C14.989 1.71486 14.8526 2.06441 14.6031 2.32629L7.27559 11.4857C7.14965 11.6213 6.99766 11.7302 6.82869 11.8057C6.65972 11.8813 6.47725 11.922 6.29219 11.9254C6.10713 11.9289 5.92328 11.8949 5.75163 11.8257C5.57999 11.7564 5.42406 11.6533 5.29319 11.5224L0.438161 6.66553C0.302905 6.5395 0.19442 6.38751 0.119178 6.21864C0.0439348 6.04977 0.00347562 5.86748 0.000214245 5.68263C-0.00304713 5.49779 0.0309562 5.31418 0.100195 5.14276C0.169434 4.97134 0.27249 4.81562 0.403216 4.6849C0.533941 4.55417 0.689658 4.45112 0.861077 4.38188C1.0325 4.31264 1.2161 4.27864 1.40095 4.2819C1.58579 4.28516 1.76809 4.32562 1.93696 4.40086C2.10583 4.4761 2.25781 4.58459 2.38384 4.71984L6.22749 8.56165L12.6024 0.439341C12.6137 0.425122 12.626 0.411634 12.6391 0.398958H12.6372Z" fill="#5F3EC0"/></svg>

<svg id="tick-w" viewBox="0 0 15 12">
<path fill-rule="evenodd" clip-rule="evenodd" d="M12.6372 0.398958C12.8941 0.144315 13.2409 0.0010032 13.6026 5.24681e-06C13.9643 -0.000992703 14.3119 0.140403 14.5702 0.393625C14.8285 0.646846 14.9767 0.991547 14.9829 1.3532C14.989 1.71486 14.8526 2.06441 14.6031 2.32629L7.27559 11.4857C7.14965 11.6213 6.99766 11.7302 6.82869 11.8057C6.65972 11.8813 6.47725 11.922 6.29219 11.9254C6.10713 11.9289 5.92328 11.8949 5.75163 11.8257C5.57999 11.7564 5.42406 11.6533 5.29319 11.5224L0.438161 6.66553C0.302905 6.5395 0.19442 6.38751 0.119178 6.21864C0.0439348 6.04977 0.00347562 5.86748 0.000214245 5.68263C-0.00304713 5.49779 0.0309562 5.31418 0.100195 5.14276C0.169434 4.97134 0.27249 4.81562 0.403216 4.6849C0.533941 4.55417 0.689658 4.45112 0.861077 4.38188C1.0325 4.31264 1.2161 4.27864 1.40095 4.2819C1.58579 4.28516 1.76809 4.32562 1.93696 4.40086C2.10583 4.4761 2.25781 4.58459 2.38384 4.71984L6.22749 8.56165L12.6024 0.439341C12.6137 0.425122 12.626 0.411634 12.6391 0.398958H12.6372Z" fill="#FFF"/></svg>

<svg id="star5" viewBox="0 0 90 18">
<path fill-rule="evenodd" clip-rule="evenodd" d="M9.00167 14.0802L5.19175 16.0242C4.63468 16.3085 3.99257 15.8335 4.10141 15.2176L4.8231 11.1336L1.78697 8.26114C1.32597 7.825 1.57342 7.04929 2.20182 6.96067L6.41918 6.36588L8.32639 2.61514C8.60721 2.06287 9.39614 2.06287 9.67696 2.61514L11.5842 6.36588L15.8015 6.96067C16.4299 7.04929 16.6774 7.825 16.2164 8.26114L13.1802 11.1336L13.9019 15.2176C14.0108 15.8335 13.3687 16.3085 12.8116 16.0242L9.00167 14.0802Z" fill="#00C8AF"/>
<path fill-rule="evenodd" clip-rule="evenodd" d="M27.0017 14.0802L23.1917 16.0242C22.6347 16.3085 21.9926 15.8335 22.1014 15.2176L22.8231 11.1336L19.787 8.26114C19.326 7.825 19.5734 7.04929 20.2018 6.96067L24.4192 6.36588L26.3264 2.61514C26.6072 2.06287 27.3961 2.06287 27.677 2.61514L29.5842 6.36588L33.8015 6.96067C34.4299 7.04929 34.6774 7.825 34.2164 8.26114L31.1802 11.1336L31.9019 15.2176C32.0108 15.8335 31.3687 16.3085 30.8116 16.0242L27.0017 14.0802Z" fill="#00C8AF"/>
<path fill-rule="evenodd" clip-rule="evenodd" d="M45.0017 14.0802L41.1917 16.0242C40.6347 16.3085 39.9926 15.8335 40.1014 15.2176L40.8231 11.1336L37.787 8.26114C37.326 7.825 37.5734 7.04929 38.2018 6.96067L42.4192 6.36588L44.3264 2.61514C44.6072 2.06287 45.3961 2.06287 45.677 2.61514L47.5842 6.36588L51.8015 6.96067C52.4299 7.04929 52.6774 7.825 52.2164 8.26114L49.1802 11.1336L49.9019 15.2176C50.0108 15.8335 49.3687 16.3085 48.8116 16.0242L45.0017 14.0802Z" fill="#00C8AF"/>
<path fill-rule="evenodd" clip-rule="evenodd" d="M63.0017 14.0802L59.1917 16.0242C58.6347 16.3085 57.9926 15.8335 58.1014 15.2176L58.8231 11.1336L55.787 8.26114C55.326 7.825 55.5734 7.04929 56.2018 6.96067L60.4192 6.36588L62.3264 2.61514C62.6072 2.06287 63.3961 2.06287 63.677 2.61514L65.5842 6.36588L69.8015 6.96067C70.4299 7.04929 70.6774 7.825 70.2164 8.26114L67.1802 11.1336L67.9019 15.2176C68.0108 15.8335 67.3687 16.3085 66.8116 16.0242L63.0017 14.0802Z" fill="#00C8AF"/>
<path fill-rule="evenodd" clip-rule="evenodd" d="M81.0017 14.0802L77.1917 16.0242C76.6347 16.3085 75.9926 15.8335 76.1014 15.2176L76.8231 11.1336L73.787 8.26114C73.326 7.825 73.5734 7.04929 74.2018 6.96067L78.4192 6.36588L80.3264 2.61514C80.6072 2.06287 81.3961 2.06287 81.677 2.61514L83.5842 6.36588L87.8015 6.96067C88.4299 7.04929 88.6774 7.825 88.2164 8.26114L85.1802 11.1336L85.9019 15.2176C86.0108 15.8335 85.3687 16.3085 84.8116 16.0242L81.0017 14.0802Z" fill="#00C8AF"/></svg>

<svg id="star4" viewBox="0 0 95 18">
<path fill-rule="evenodd" clip-rule="evenodd" d="M8.90687 14.0787L5.15195 16.0149C4.59532 16.3019 3.95062 15.8279 4.0585 15.211L4.7718 11.1321L1.76385 8.25641C1.30684 7.81949 1.55454 7.04803 2.18048 6.95882L6.35126 6.36442L8.23014 2.63051C8.50995 2.07444 9.30379 2.07444 9.5836 2.63051L11.4625 6.36442L15.6333 6.95882C16.2592 7.04803 16.5069 7.81949 16.0499 8.25641L13.042 11.1321L13.7552 15.211C13.8631 15.8279 13.2184 16.3019 12.6618 16.0149L8.90687 14.0787Z" fill="#00C8AF"/>
<path fill-rule="evenodd" clip-rule="evenodd" d="M28.2037 14.0787L24.4488 16.0149C23.8922 16.3019 23.2475 15.8279 23.3554 15.211L24.0687 11.1321L21.0607 8.25641C20.6037 7.81949 20.8514 7.04803 21.4774 6.95882L25.6481 6.36442L27.527 2.63051C27.8068 2.07444 28.6007 2.07444 28.8805 2.63051L30.7594 6.36442L34.9301 6.95882C35.5561 7.04803 35.8038 7.81949 35.3468 8.25641L32.3388 11.1321L33.0521 15.211C33.16 15.8279 32.5153 16.3019 31.9587 16.0149L28.2037 14.0787Z" fill="#00C8AF"/>
<path fill-rule="evenodd" clip-rule="evenodd" d="M47.5006 14.0787L43.7457 16.0149C43.1891 16.3019 42.5444 15.8279 42.6523 15.211L43.3655 11.1321L40.3576 8.25641C39.9006 7.81949 40.1483 7.04803 40.7742 6.95882L44.945 6.36442L46.8239 2.63051C47.1037 2.07444 47.8975 2.07444 48.1774 2.63051L50.0562 6.36442L54.227 6.95882C54.853 7.04803 55.1007 7.81949 54.6436 8.25641L51.6357 11.1321L52.349 15.211C52.4569 15.8279 51.8122 16.3019 51.2555 16.0149L47.5006 14.0787Z" fill="#00C8AF"/>
<path fill-rule="evenodd" clip-rule="evenodd" d="M66.7975 14.0787L63.0426 16.0149C62.4859 16.3019 61.8412 15.8279 61.9491 15.211L62.6624 11.1321L59.6545 8.25641C59.1975 7.81949 59.4452 7.04803 60.0711 6.95882L64.2419 6.36442L66.1208 2.63051C66.4006 2.07444 67.1944 2.07444 67.4742 2.63051L69.3531 6.36442L73.5239 6.95882C74.1498 7.04803 74.3975 7.81949 73.9405 8.25641L70.9326 11.1321L71.6459 15.211C71.7537 15.8279 71.1091 16.3019 70.5524 16.0149L66.7975 14.0787Z" fill="#00C8AF"/>
<path fill-rule="evenodd" clip-rule="evenodd" d="M86.0944 14.0787L82.3394 16.0149C81.7828 16.3019 81.1381 15.8279 81.246 15.211L81.9593 11.1321L78.9514 8.25641C78.4943 7.81949 78.742 7.04803 79.368 6.95882L83.5388 6.36442L85.4176 2.63051C85.6975 2.07444 86.4913 2.07444 86.7711 2.63051L88.65 6.36442L92.8208 6.95882C93.4467 7.04803 93.6944 7.81949 93.2374 8.25641L90.2295 11.1321L90.9427 15.211C91.0506 15.8279 90.4059 16.3019 89.8493 16.0149L86.0944 14.0787Z" stroke="#00C8AF"/></svg>

<svg id="star3" viewBox="0 0 95 18">
<path fill-rule="evenodd" clip-rule="evenodd" d="M8.90687 14.0787L5.15195 16.0149C4.59532 16.3019 3.95062 15.8279 4.0585 15.211L4.7718 11.1321L1.76385 8.25641C1.30684 7.81949 1.55454 7.04803 2.18048 6.95882L6.35126 6.36442L8.23014 2.63051C8.50995 2.07444 9.30379 2.07444 9.5836 2.63051L11.4625 6.36442L15.6333 6.95882C16.2592 7.04803 16.5069 7.81949 16.0499 8.25641L13.042 11.1321L13.7552 15.211C13.8631 15.8279 13.2184 16.3019 12.6618 16.0149L8.90687 14.0787Z" fill="#00C8AF"/>
<path fill-rule="evenodd" clip-rule="evenodd" d="M28.2037 14.0787L24.4488 16.0149C23.8922 16.3019 23.2475 15.8279 23.3554 15.211L24.0687 11.1321L21.0607 8.25641C20.6037 7.81949 20.8514 7.04803 21.4774 6.95882L25.6481 6.36442L27.527 2.63051C27.8068 2.07444 28.6007 2.07444 28.8805 2.63051L30.7594 6.36442L34.9301 6.95882C35.5561 7.04803 35.8038 7.81949 35.3468 8.25641L32.3388 11.1321L33.0521 15.211C33.16 15.8279 32.5153 16.3019 31.9587 16.0149L28.2037 14.0787Z" fill="#00C8AF"/>
<path fill-rule="evenodd" clip-rule="evenodd" d="M47.5006 14.0787L43.7457 16.0149C43.1891 16.3019 42.5444 15.8279 42.6523 15.211L43.3655 11.1321L40.3576 8.25641C39.9006 7.81949 40.1483 7.04803 40.7742 6.95882L44.945 6.36442L46.8239 2.63051C47.1037 2.07444 47.8975 2.07444 48.1774 2.63051L50.0562 6.36442L54.227 6.95882C54.853 7.04803 55.1007 7.81949 54.6436 8.25641L51.6357 11.1321L52.349 15.211C52.4569 15.8279 51.8122 16.3019 51.2555 16.0149L47.5006 14.0787Z" fill="#00C8AF"/>
<path fill-rule="evenodd" clip-rule="evenodd" d="M66.7975 14.0787L63.0426 16.0149C62.4859 16.3019 61.8412 15.8279 61.9491 15.211L62.6624 11.1321L59.6545 8.25641C59.1975 7.81949 59.4452 7.04803 60.0711 6.95882L64.2419 6.36442L66.1208 2.63051C66.4006 2.07444 67.1944 2.07444 67.4742 2.63051L69.3531 6.36442L73.5239 6.95882C74.1498 7.04803 74.3975 7.81949 73.9405 8.25641L70.9326 11.1321L71.6459 15.211C71.7537 15.8279 71.1091 16.3019 70.5524 16.0149L66.7975 14.0787Z" stroke="#00C8AF"/>
<path fill-rule="evenodd" clip-rule="evenodd" d="M86.0944 14.0787L82.3394 16.0149C81.7828 16.3019 81.1381 15.8279 81.246 15.211L81.9593 11.1321L78.9514 8.25641C78.4943 7.81949 78.742 7.04803 79.368 6.95882L83.5388 6.36442L85.4176 2.63051C85.6975 2.07444 86.4913 2.07444 86.7711 2.63051L88.65 6.36442L92.8208 6.95882C93.4467 7.04803 93.6944 7.81949 93.2374 8.25641L90.2295 11.1321L90.9427 15.211C91.0506 15.8279 90.4059 16.3019 89.8493 16.0149L86.0944 14.0787Z" stroke="#00C8AF"/></svg>

<svg id="sum" viewBox="0 0 24 24">
<path d="M3.75391 10.4995H20.2458C20.66 10.4995 20.9958 10.1637 20.9958 9.74951C20.9958 9.3353 20.66 8.99951 20.2458 8.99951H3.75391C3.33969 8.99951 3.00391 9.3353 3.00391 9.74951C3.00391 10.1637 3.33969 10.4995 3.75391 10.4995Z" fill="#212121"/>
<path d="M3.75391 15.5H20.2458C20.66 15.5 20.9958 15.1642 20.9958 14.75C20.9958 14.3358 20.66 14 20.2458 14H3.75391C3.33969 14 3.00391 14.3358 3.00391 14.75C3.00391 15.1642 3.33969 15.5 3.75391 15.5Z" fill="#212121"/></svg>

<svg id="plus" viewBox="0 0 24 24">
<path d="M11.7496 3C12.1293 3 12.4431 3.28201 12.4929 3.64808L12.4997 3.74985L12.501 11H19.754C20.1683 11 20.504 11.3358 20.504 11.75C20.504 12.1297 20.2219 12.4435 19.8558 12.4932L19.754 12.5H12.501L12.503 19.7491C12.5031 20.1633 12.1674 20.4993 11.7532 20.4993C11.3735 20.4993 11.0596 20.2173 11.0099 19.8512L11.003 19.7494L11.001 12.5H3.75195C3.33774 12.5 3.00195 12.1642 3.00195 11.75C3.00195 11.3703 3.28411 11.0565 3.65018 11.0068L3.75195 11H11.001L10.9997 3.75015C10.9997 3.33594 11.3354 3 11.7496 3Z" fill="#212121"/></svg>

<svg id="img-scale" viewBox="0 0 48 48">
<path d="M34.5 6C38.6421 6 42 9.35786 42 13.5V34.5C42 38.6421 38.6421 42 34.5 42H13.5C9.35786 42 6 38.6421 6 34.5V13.5C6 9.35786 9.35786 6 13.5 6H34.5ZM34.5 9H13.5C11.0147 9 9 11.0147 9 13.5V34.5C9 36.9853 11.0147 39 13.5 39H34.5C36.9853 39 39 36.9853 39 34.5V13.5C39 11.0147 36.9853 9 34.5 9ZM34.5 26C35.3284 26 36 26.6716 36 27.5V32C36 34.2092 34.2092 36 32 36H27.5C26.6716 36 26 35.3284 26 34.5C26 33.6716 26.6716 33 27.5 33H32C32.5522 33 33 32.5522 33 32V27.5C33 26.6716 33.6716 26 34.5 26ZM13.5 26C14.3284 26 15 26.6716 15 27.5V32C15 32.5522 15.4477 33 16 33H20.5C21.3284 33 22 33.6716 22 34.5C22 35.3284 21.3284 36 20.5 36H16C13.7909 36 12 34.2092 12 32V27.5C12 26.6716 12.6716 26 13.5 26ZM16 12H20.5C21.3284 12 22 12.6716 22 13.5C22 14.2594 21.4357 14.887 20.7035 14.9863L20.5 15H16C15.5091 15 15.1008 15.3538 15.0161 15.8202L15 16V20.5C15 21.3284 14.3284 22 13.5 22C12.7406 22 12.113 21.4357 12.0137 20.7035L12 20.5V16C12 13.8913 13.6318 12.1637 15.7015 12.011L16 12H20.5H16ZM32 12C34.2092 12 36 13.7909 36 16V20.5C36 21.3284 35.3284 22 34.5 22C33.6716 22 33 21.3284 33 20.5V16C33 15.4477 32.5522 15 32 15H27.5C26.6716 15 26 14.3284 26 13.5C26 12.6716 26.6716 12 27.5 12H32Z" fill="#212121"/></svg>

<svg id="star-on" viewBox="0 0 30 30">
<path fill-rule="evenodd" clip-rule="evenodd" d="M14.9041 23.4647L8.61873 26.6921C7.68681 27.1706 6.60954 26.3766 6.79074 25.3448L7.98332 18.5537L2.95922 13.7706C2.19165 13.0399 2.60605 11.7459 3.65533 11.597L10.6268 10.6076L13.7725 4.38247C14.2415 3.45434 15.5668 3.45434 16.0358 4.38247L19.1814 10.6076L26.1529 11.597C27.2022 11.7459 27.6166 13.0399 26.849 13.7706L21.825 18.5537L23.0175 25.3448C23.1987 26.3766 22.1215 27.1706 21.1895 26.6921L14.9041 23.4647Z" fill="#5F3EC0"/></svg>

<svg id="star-off" viewBox="0 0 30 30">
<path fill-rule="evenodd" clip-rule="evenodd" d="M14.9041 23.4647L8.61873 26.6921C7.68681 27.1706 6.60954 26.3766 6.79074 25.3448L7.98332 18.5537L2.95922 13.7706C2.19165 13.0399 2.60605 11.7459 3.65533 11.597L10.6268 10.6076L13.7725 4.38247C14.2415 3.45434 15.5668 3.45434 16.0358 4.38247L19.1814 10.6076L26.1529 11.597C27.2022 11.7459 27.6166 13.0399 26.849 13.7706L21.825 18.5537L23.0175 25.3448C23.1987 26.3766 22.1215 27.1706 21.1895 26.6921L14.9041 23.4647Z" fill="#B4B4B4"/></svg>

<svg id="spin" viewBox="0 0 128 128"><path fill="#7ba6db" id="ball1" class="cls-1" d="M67.712,108.82a10.121,10.121,0,1,1-1.26,14.258A10.121,10.121,0,0,1,67.712,108.82Z"><animateTransform attributeName="transform" type="rotate" values="0 64 64;4 64 64;0 64 64;0 64 64;0 64 64;0 64 64;0 64 64;0 64 64;0 64 64;0 64 64;0 64 64;0 64 64;0 64 64;" dur="1200ms" repeatCount="indefinite"></animateTransform></path><path fill="#7ba6db" id="ball2" class="cls-1" d="M51.864,106.715a10.125,10.125,0,1,1-8.031,11.855A10.125,10.125,0,0,1,51.864,106.715Z"><animateTransform attributeName="transform" type="rotate" values="0 64 64;10 64 64;0 64 64;0 64 64;0 64 64;0 64 64;0 64 64;0 64 64;0 64 64;0 64 64;0 64 64;0 64 64;0 64 64;" dur="1200ms" repeatCount="indefinite"></animateTransform></path><path fill="#7ba6db" id="ball3" class="cls-1" d="M33.649,97.646a10.121,10.121,0,1,1-11.872,8A10.121,10.121,0,0,1,33.649,97.646Z"><animateTransform attributeName="transform" type="rotate" values="0 64 64;20 64 64;40 64 64;65 64 64;85 64 64;100 64 64;120 64 64;140 64 64;160 64 64;185 64 64;215 64 64;255 64 64;300 64 64;" dur="1200ms" repeatCount="indefinite"></animateTransform></path></svg>

</svg>